#!OML:ASF H:\Terrain\Patient Classification 1\Takeo\Monday\TakeoMonday.ASF
:FULLY-SPECIFIED
:DEGREES
276
root 10.6572 18.3461 0.778744 4.65093 3.64808 0.256529
lowerback 18.1816 -0.82242 -0.696519
upperback 2.1506 -1.20921 0.0529958
thorax -7.85547 -0.55721 0.74927
lowerneck -15.8727 -0.488956 -1.35795
upperneck -6.22864 -0.413721 1.02401
head 0.67644 -0.158382 0.529491
rclavicle -3.40419e-015 1.39149e-015
rhumerus -40.9209 0.3688 -81.4281
rradius 38.444
rwrist -22.7428
rhand -30.1341 19.8402
rfingers 7.12502
rthumb -3.44693 -10.1117
lclavicle -3.40419e-015 1.39149e-015
lhumerus -39.5557 6.01039 70.7009
lradius 33.8417
lwrist 16.971
lhand -25.9569 14.7127
lfingers 7.12502
lthumb 0.587404 44.6916
rfemur -12.7227 4.87646 20.7908
rtibia 20.5442
rfoot -2.66454 -10.2327
rtoes -0.149088
lfemur -14.5394 -1.64374 -22.2851
ltibia 23.9646
lfoot -2.07519 11.8289
ltoes -2.1613
277
root 10.6492 18.3322 0.763357 4.33788 3.75983 -0.0151958
lowerback 17.7444 -0.845022 -0.356067
upperback 2.10279 -1.15991 0.186023
thorax -7.67255 -0.543427 0.679462
lowerneck -15.7982 -0.504306 -1.39014
upperneck -5.83043 -0.431666 0.9072
head 0.794716 -0.170021 0.497883
rclavicle -8.34896e-015 2.23633e-015
rhumerus -40.6151 0.458052 -81.4471
rradius 38.7063
rwrist -22.5983
rhand -30.13 19.6517
rfingers 7.12502
rthumb -3.44298 -10.3002
lclavicle -8.34896e-015 2.23633e-015
lhumerus -39.1588 6.13552 70.847
lradius 33.9946
lwrist 16.8706
lhand -26.0023 14.6007
lfingers 7.12502
lthumb 0.543491 44.5798
rfemur -12.3162 4.79979 21.1432
rtibia 20.352
rfoot -3.10269 -10.3042
rtoes -0.338061
lfemur -14.0562 -1.87815 -21.9985
ltibia 23.6237
lfoot -2.08358 12.0035
ltoes -2.12899
278
root 10.6425 18.3168 0.745029 3.92811 3.98008 -0.376335
lowerback 17.4384 -0.927215 0.174338
upperback 2.07764 -1.15832 0.292766
thorax -7.54034 -0.557793 0.487086
lowerneck -15.8287 -0.415256 -1.1914
upperneck -5.2801 -0.347697 0.647281
head 0.978391 -0.138162 0.387565
rclavicle 4.77704e-015 -8.32411e-015
rhumerus -40.384 0.844991 -81.6859
rradius 38.9513
rwrist -22.8754
rhand -30.2433 19.4003
rfingers 7.12502
rthumb -3.5524 -10.5498
lclavicle 4.77704e-015 -8.32411e-015
lhumerus -38.8082 6.16536 70.9445
lradius 34.2502
lwrist 16.5624
lhand -25.7773 14.7594
lfingers 7.12502
lthumb 0.760843 44.7378
rfemur -11.8187 4.60683 21.6161
rtibia 20.1138
rfoot -3.37979 -10.2775
rtoes -1.68587
lfemur -13.4283 -2.14024 -21.6001
ltibia 23.2334
lfoot -2.30127 12.087
ltoes -2.01417
279
root 10.6326 18.3064 0.728677 3.36785 4.18356 -0.672832
lowerback 17.236 -1.02332 0.633357
upperback 2.09426 -1.195 0.35318
thorax -7.41935 -0.58849 0.29587
lowerneck -15.8378 -0.451711 -1.32085
upperneck -4.64144 -0.376279 0.772623
head 1.1935 -0.148766 0.4491
rclavicle -1.2424e-015 -6.21202e-015
rhumerus -40.1462 1.27645 -81.9902
rradius 39.1236
rwrist -23.1862
rhand -30.3325 19.4257
rfingers 7.12502
rthumb -3.63859 -10.523
lclavicle -1.2424e-015 -6.21202e-015
lhumerus -38.5249 5.74101 71.1539
lradius 34.5999
lwrist 16.9435
lhand -26.0835 14.9526
lfingers 7.12502
lthumb 0.465114 44.9318
rfemur -11.1356 4.44995 22.0397
rtibia 19.9321
rfoot -3.7618 -10.3327
rtoes -1.77044
lfemur -12.5874 -2.46082 -21.2513
ltibia 22.7754
lfoot -2.55168 12.2625
ltoes -0.58428
280
root 10.6243 18.2914 0.717019 2.90047 4.3876 -0.588774
lowerback 16.9216 -1.09152 0.685211
upperback 2.04132 -1.27957 0.340405
thorax -7.30539 -0.631569 0.26696
lowerneck -15.4071 -0.490967 -1.54288
upperneck -4.30323 -0.399627 0.901356
head 1.23438 -0.155946 0.526977
rclavicle 3.63714e-015 6.80837e-015
rhumerus -39.9211 1.55713 -82.1982
rradius 39.254
rwrist -23.2649
rhand -30.2616 19.8131
rfingers 7.12502
rthumb -3.57013 -10.1367
lclavicle 3.63714e-015 6.80837e-015
lhumerus -38.2906 5.27837 71.3932
lradius 34.9032
lwrist 17.6238
lhand -26.3046 15.2402
lfingers 7.12502
lthumb 0.251552 45.2198
rfemur -10.4999 4.32207 22.0102
rtibia 19.8402
rfoot -4.52166 -10.3652
rtoes -0.219801
lfemur -11.7611 -2.83686 -21.3183
ltibia 22.2368
lfoot -3.02262 12.4788
ltoes 1.58205
281
root 10.6197 18.2619 0.703537 2.57229 4.46385 -0.112799
lowerback 16.61 -1.09284 0.308905
upperback 1.86931 -1.36086 0.239493
thorax -7.31321 -0.662087 0.387098
lowerneck -14.8696 -0.436731 -1.44212
upperneck -3.97689 -0.351116 0.665594
head 1.24804 -0.14102 0.437518
rclavicle -2.04375e-015 4.28629e-015
rhumerus -39.8523 1.9458 -82.4417
rradius 39.4439
rwrist -23.1503
rhand -30.2566 20.4049
rfingers 7.12502
rthumb -3.56529 -9.54505
lclavicle -2.04375e-015 4.28629e-015
lhumerus -38.2704 4.98676 71.6098
lradius 35.2308
lwrist 17.799
lhand -25.9655 15.7191
lfingers 7.12502
lthumb 0.579033 45.6981
rfemur -9.98532 4.22396 21.5143
rtibia 19.6163
rfoot -5.13269 -10.3457
rtoes 0.424128
lfemur -11.0553 -3.04926 -21.8466
ltibia 21.7764
lfoot -3.58512 12.5663
ltoes 0.413368
282
root 10.6106 18.2251 0.686137 2.21448 4.31128 -0.104344
lowerback 16.2178 -1.02266 0.263539
upperback 1.80495 -1.2738 0.311043
thorax -7.16381 -0.618632 0.462676
lowerneck -14.6937 -0.441532 -1.3696
upperneck -3.52081 -0.369384 0.437741
head 1.36782 -0.158733 0.35251
rclavicle 1.15171e-014 -3.62782e-015
rhumerus -39.5911 2.52886 -82.6849
rradius 39.6629
rwrist -23.0764
rhand -30.4961 20.5219
rfingers 7.12502
rthumb -3.7965 -9.42401
lclavicle 1.15171e-014 -3.62782e-015
lhumerus -38.0733 4.79215 71.9335
lradius 35.5212
lwrist 17.6271
lhand -25.5872 15.9626
lfingers 7.12502
lthumb 0.944416 45.9403
rfemur -9.48641 4.43288 21.5448
rtibia 19.3233
rfoot -5.58097 -10.4342
rtoes 1.13056
lfemur -10.3665 -3.10986 -21.8358
ltibia 21.3314
lfoot -4.02522 12.5783
ltoes -3.00917
283
root 10.5974 18.1911 0.668475 1.85773 4.17772 -0.310993
lowerback 15.7066 -0.9503 0.375817
upperback 1.8144 -1.1516 0.459481
thorax -6.87136 -0.561854 0.520585
lowerneck -14.5608 -0.482286 -1.71313
upperneck -3.11869 -0.375217 0.705061
head 1.48149 -0.152943 0.496938
rclavicle 3.91357e-015 1.00883e-014
rhumerus -39.202 3.19721 -82.9362
rradius 39.9685
rwrist -23.3721
rhand -30.9729 20.1752
rfingers 7.12502
rthumb -4.25693 -9.76205
lclavicle 3.91357e-015 1.00883e-014
lhumerus -37.7237 2.95301 73.5011
lradius 36.7195
lwrist 23.1999
lhand -31.3361 17.4251
lfingers 7.12502
lthumb -4.60771 47.355
rfemur -8.99753 4.70614 21.8477
rtibia 19.0672
rfoot -6.20437 -10.5477
rtoes 1.43237
lfemur -9.74574 -3.19809 -21.5626
ltibia 20.8211
lfoot -4.37432 12.6203
ltoes -5.0647
